<mxfile host="Electron" modified="2023-06-13T04:43:00.519Z" agent="Mozilla/5.0 (X11; Linux x86_64) AppleWebKit/537.36 (KHTML, like Gecko) draw.io/21.3.7 Chrome/112.0.5615.204 Electron/24.5.0 Safari/537.36" etag="IuBTqIZd_-6WE9bg1EwY" version="21.3.7" type="device">
  <diagram name="Page-1" id="MHqlvqx7FqDZ3-izeYMZ">
    <mxGraphModel dx="691" dy="410" grid="1" gridSize="10" guides="1" tooltips="1" connect="1" arrows="1" fold="1" page="1" pageScale="1" pageWidth="827" pageHeight="1169" math="0" shadow="0">
      <root>
        <mxCell id="0" />
        <mxCell id="1" parent="0" />
        <mxCell id="WjoS6a5MXgaJo1_vFzQs-7" value="" style="rounded=0;whiteSpace=wrap;html=1;" parent="1" vertex="1">
          <mxGeometry x="10" y="50" width="370" height="340" as="geometry" />
        </mxCell>
        <mxCell id="40pNRldAVp_o9qbd7GbC-37" value="" style="rounded=0;whiteSpace=wrap;html=1;fillColor=#dae8fc;strokeColor=#6c8ebf;" parent="1" vertex="1">
          <mxGeometry x="190" y="60" width="180" height="310" as="geometry" />
        </mxCell>
        <mxCell id="40pNRldAVp_o9qbd7GbC-22" value="" style="rounded=1;whiteSpace=wrap;html=1;fillColor=#f8cecc;strokeColor=#b85450;" parent="1" vertex="1">
          <mxGeometry x="210" y="80" width="140" height="260" as="geometry" />
        </mxCell>
        <mxCell id="xfNYurugwk0_LkikgmJU-4" style="edgeStyle=orthogonalEdgeStyle;rounded=0;orthogonalLoop=1;jettySize=auto;html=1;entryX=0.5;entryY=0;entryDx=0;entryDy=0;entryPerimeter=0;strokeWidth=3;" parent="1" edge="1">
          <mxGeometry relative="1" as="geometry">
            <mxPoint x="300" y="195" as="sourcePoint" />
            <mxPoint x="300" y="240" as="targetPoint" />
          </mxGeometry>
        </mxCell>
        <mxCell id="40pNRldAVp_o9qbd7GbC-6" value="&lt;b&gt;&lt;font style=&quot;font-size: 20px;&quot;&gt;pgadmin&lt;/font&gt;&lt;/b&gt;" style="rounded=0;whiteSpace=wrap;html=1;" parent="1" vertex="1">
          <mxGeometry x="230" y="110" width="100" height="85" as="geometry" />
        </mxCell>
        <mxCell id="40pNRldAVp_o9qbd7GbC-24" value="&lt;font style=&quot;font-size: 12px;&quot;&gt;database network&lt;/font&gt;" style="text;html=1;strokeColor=none;fillColor=none;align=center;verticalAlign=middle;whiteSpace=wrap;rounded=0;" parent="1" vertex="1">
          <mxGeometry x="235" y="80" width="114.5" height="30" as="geometry" />
        </mxCell>
        <mxCell id="xfNYurugwk0_LkikgmJU-2" style="edgeStyle=orthogonalEdgeStyle;rounded=0;orthogonalLoop=1;jettySize=auto;html=1;entryX=0.5;entryY=1;entryDx=0;entryDy=0;strokeWidth=3;" parent="1" edge="1">
          <mxGeometry relative="1" as="geometry">
            <mxPoint x="264" y="240" as="sourcePoint" />
            <mxPoint x="264" y="195" as="targetPoint" />
          </mxGeometry>
        </mxCell>
        <mxCell id="WjoS6a5MXgaJo1_vFzQs-3" value="&lt;b&gt;&lt;font style=&quot;font-size: 16px;&quot;&gt;DB&lt;/font&gt;&lt;/b&gt;" style="shape=cylinder3;whiteSpace=wrap;html=1;boundedLbl=1;backgroundOutline=1;size=15;" parent="1" vertex="1">
          <mxGeometry x="235" y="240" width="90" height="87.5" as="geometry" />
        </mxCell>
        <mxCell id="WjoS6a5MXgaJo1_vFzQs-8" value="&lt;b&gt;&lt;font style=&quot;font-size: 18px;&quot;&gt;&lt;u&gt;Local Setup&lt;/u&gt;&lt;/font&gt;&lt;/b&gt;" style="text;html=1;strokeColor=none;fillColor=none;align=center;verticalAlign=middle;whiteSpace=wrap;rounded=0;" parent="1" vertex="1">
          <mxGeometry x="19" y="60" width="130" height="30" as="geometry" />
        </mxCell>
        <mxCell id="xfNYurugwk0_LkikgmJU-6" value="" style="group" parent="1" vertex="1" connectable="0">
          <mxGeometry x="59" y="239" width="90" height="90" as="geometry" />
        </mxCell>
        <mxCell id="WjoS6a5MXgaJo1_vFzQs-4" value="" style="sketch=0;aspect=fixed;pointerEvents=1;shadow=0;dashed=0;html=1;strokeColor=none;labelPosition=center;verticalLabelPosition=bottom;verticalAlign=top;align=center;fillColor=#00188D;shape=mxgraph.mscae.enterprise.workstation_client" parent="xfNYurugwk0_LkikgmJU-6" vertex="1">
          <mxGeometry width="90" height="90" as="geometry" />
        </mxCell>
        <mxCell id="WjoS6a5MXgaJo1_vFzQs-5" value="&lt;b&gt;&lt;font style=&quot;font-size: 16px;&quot;&gt;API&lt;/font&gt;&lt;/b&gt;" style="text;html=1;strokeColor=none;fillColor=none;align=center;verticalAlign=middle;whiteSpace=wrap;rounded=0;" parent="xfNYurugwk0_LkikgmJU-6" vertex="1">
          <mxGeometry x="25" y="39" width="60" height="30" as="geometry" />
        </mxCell>
        <mxCell id="xfNYurugwk0_LkikgmJU-9" style="edgeStyle=orthogonalEdgeStyle;rounded=0;orthogonalLoop=1;jettySize=auto;html=1;entryX=0;entryY=0.5;entryDx=0;entryDy=0;entryPerimeter=0;strokeWidth=3;" parent="1" source="WjoS6a5MXgaJo1_vFzQs-4" target="WjoS6a5MXgaJo1_vFzQs-3" edge="1">
          <mxGeometry relative="1" as="geometry" />
        </mxCell>
        <mxCell id="xfNYurugwk0_LkikgmJU-11" value="" style="endArrow=classic;html=1;rounded=1;strokeWidth=5;fillColor=#008a00;strokeColor=#005700;entryX=0;entryY=0.5;entryDx=0;entryDy=0;" parent="1" edge="1" target="40pNRldAVp_o9qbd7GbC-6">
          <mxGeometry relative="1" as="geometry">
            <mxPoint x="59" y="152.33" as="sourcePoint" />
            <mxPoint x="189" y="152.33" as="targetPoint" />
          </mxGeometry>
        </mxCell>
        <mxCell id="xfNYurugwk0_LkikgmJU-12" value="&lt;font style=&quot;font-size: 12px;&quot;&gt;&lt;b&gt;localhost:5050&lt;/b&gt;&lt;/font&gt;" style="edgeLabel;resizable=0;html=1;align=center;verticalAlign=middle;" parent="xfNYurugwk0_LkikgmJU-11" connectable="0" vertex="1">
          <mxGeometry relative="1" as="geometry">
            <mxPoint x="-14" as="offset" />
          </mxGeometry>
        </mxCell>
        <mxCell id="2lvEhnDmq6mZGCz0soCQ-1" value="" style="image;sketch=0;aspect=fixed;html=1;points=[];align=center;fontSize=12;image=img/lib/mscae/Docker.svg;" vertex="1" parent="1">
          <mxGeometry x="200" y="345.4" width="20" height="16.4" as="geometry" />
        </mxCell>
      </root>
    </mxGraphModel>
  </diagram>
</mxfile>
